ply
format ascii 1.0
element face 0property list uchar int vertex_indices
element vertex 1304
property float x
property float y
property float z
property uchar diffuse_red
property uchar diffuse_green
property uchar diffuse_blue
end_header
0 0 0 255 0 0
-2.92938 -3.23739 36.8144 83 74 67
2.51395 -2.38122 29.0812 45 32 24
-7.98211 10.1402 38.18 35 29 29
-0.842469 3.50877 30.7168 218 213 209
-5.1009 -2.21199 37.8767 61 47 47
-0.0719872 -1.00202 32.4489 209 202 192
2.55033 1.55567 32.1797 197 180 170
-0.00615173 -12.1371 42.7213 36 33 40
0.6961 -13.1036 43.3396 158 138 111
-8.01332 8.23669 39.4303 142 124 102
-3.05913 -5.33569 36.2206 125 108 92
8.63923 -2.77304 44.5194 38 40 39
-23.5153 16.1828 85.978 38 33 40
-4.89618 8.96513 34.3107 191 172 158
10.0018 -1.70486 44.1701 119 111 100
-7.99528 8.57579 39.2675 72 64 61
-4.88251 -2.6444 37.9152 233 215 203
5.30874 -1.05656 33.4514 190 180 170
-2.28118 -2.21176 35.599 79 75 66
-8.36557 8.03563 39.8798 131 97 70
-2.254 -2.21494 35.3396 82 78 75
0.378063 -12.5042 41.6288 179 162 142
-1.64583 3.70687 31.0307 223 213 203
-1.39037 2.64548 31.2199 207 194 188
-0.924926 -4.18784 34.4057 98 83 80
-3.85145 -1.97639 36.59 60 59 65
-2.09634 -13.2588 46.046 243 249 249
-9.30239 7.41012 42.0914 191 178 162
-1.65265 2.65518 30.9062 219 206 197
3.97148 -4.07454 34.0582 65 52 44
-0.454911 -6.02779 35.4425 147 131 132
-2.20864 -12.1899 44.4138 46 34 18
-0.272312 -12.091 41.6552 171 154 144
9.88925 -2.24137 44.7178 153 148 128
4.67671 -3.83177 34.6955 48 39 40
5.08738 -1.83949 34.7239 73 67 77
4.42359 -2.57329 36.394 66 49 41
-2.0854 5.73523 31.0314 217 208 201
-6.67315 6.91478 36.7253 79 68 64
-3.71861 -1.89591 36.4042 70 68 69
10.3756 -2.40111 45.0757 35 40 44
-0.0428375 -3.48259 34.1978 231 222 217
-6.29752 6.30296 36.2785 239 231 229
8.30474 -0.842511 39.9463 60 59 54
-0.969654 -4.97829 34.9513 143 134 127
5.09902 -1.85345 34.8062 61 56 63
-7.53333 8.52143 37.8999 159 139 112
1.24902 -3.77413 33.6284 93 74 60
-1.67282 4.48651 30.4538 85 65 54
-0.305842 -12.5886 43.86 147 134 117
0.655176 -13.6891 43.5284 50 47 56
9.95627 1.90681 43.0799 37 44 54
4.4965 -2.3036 34.0747 68 49 34
-2.058 1.29513 32.654 235 223 211
-2.14147 -2.34807 34.7558 85 80 77
-1.73785 1.55793 32.221 64 54 63
-0.132873 -11.3829 41.8996 229 226 219
4.85601 -2.18655 34.31 103 86 79
6.32667 -1.60187 36.734 171 159 135
-0.192978 -11.1531 40.6935 227 218 213
4.76189 -1.49413 34.6671 204 186 176
1.89167 -3.79379 33.1641 166 152 139
-22.1267 15.1605 82.6415 31 28 35
-1.73433 1.61469 32.6676 69 59 68
0.653581 -13.7121 43.6046 50 47 56
-4.70916 -2.84888 37.519 84 72 76
4.25706 -3.64128 34.0806 147 150 143
-0.290545 -13.3189 44.3692 51 57 29
-0.670387 4.75264 30.7756 88 67 50
-1.48299 1.90113 31.9832 79 70 75
-0.101381 -11.5827 42.7248 214 209 205
5.62726 -2.83171 35.2666 62 52 51
1.54342 -11.8753 41.5507 87 72 69
-6.04747 7.18753 35.6342 75 47 44
-2.93728 -4.79827 35.3505 218 205 197
-1.64297 -4.65341 34.816 194 187 181
2.68184 1.37351 32.3172 156 143 134
-1.43935 -0.553902 31.8667 135 117 105
12.4706 4.15649 47.3758 49 49 61
-1.59586 3.97005 30.9182 96 79 72
3.98164 -4.41362 35.1794 173 164 155
-21.4873 22.5328 75.765 29 24 28
-1.89298 3.47927 31.7342 99 70 54
-3.07539 -4.80413 35.2088 225 216 207
-3.12649 -4.85034 35.5143 225 216 207
-2.12564 1.62542 32.7077 228 211 203
-7.01863 10.1054 36.6607 118 95 77
0.961587 -12.2993 42.173 36 26 37
-26.4034 19.6611 79.3471 136 128 125
-0.527534 4.37871 28.5668 91 69 56
-8.1938 7.64153 39.9675 195 178 162
-1.54623 -0.575765 32.9746 123 109 100
2.35554 0.342395 31.4957 82 64 52
-27.2872 22.3735 77.4034 172 171 153
1.08961 -11.8985 42.027 202 191 171
-1.31609 -11.46 43.5143 222 209 201
-7.0485 9.61618 37.3912 218 200 160
-5.91138 9.01158 34.974 202 185 167
2.03062 -0.234882 32.285 83 74 67
8.28086 0.944169 38.9225 38 40 39
2.76785 2.95412 31.6288 146 137 132
-3.18933 -1.9088 37.5293 140 125 122
-5.53676 6.81023 35.5766 77 61 61
-1.38858 2.44491 31.0802 229 213 200
-4.46144 -2.94856 36.6089 78 54 52
-2.6383 4.49886 31.8199 204 185 179
-1.98044 3.39341 30.2834 98 73 53
2.29949 0.353299 31.3454 79 57 46
9.99034 3.06102 42.414 139 135 123
10.4797 -2.32467 45.079 34 34 44
-4.38934 -2.65039 37.3948 113 90 82
1.20221 -10.96 40.179 214 200 187
-3.8536 -3.82975 36.2274 72 63 64
-2.27589 -4.64338 34.9736 130 116 107
-4.18425 -2.11735 35.2977 67 62 58
-1.09765 3.17083 30.651 83 61 50
-2.52317 -5.13228 35.4496 157 147 137
-7.02085 5.58955 37.3673 132 111 84
1.15744 -12.565 42.4696 74 63 69
-3.13473 -4.51365 35.5303 113 102 100
-26.699 21.7814 76.1605 163 156 140
2.77601 0.166421 32.024 199 190 175
-4.36449 -1.61054 36.0704 228 217 211
3.84055 -4.61732 33.3051 195 193 194
0.596517 -12.6114 42.9614 56 47 50
-6.49759 7.49443 36.2949 91 60 55
2.00126 -5.36966 34.4225 204 195 186
7.17672 -6.80342 41.1361 33 31 45
3.91943 -1.38475 33.7764 64 65 70
1.93024 -1.39732 33.3109 162 156 140
1.93477 0.0532361 31.2282 161 153 142
6.54812 -8.18951 41.9296 55 94 151
-1.56226 -2.52627 34.6637 54 49 55
-2.62426 -3.96132 35.3956 155 138 122
-4.73766 -3.66428 37.5001 64 55 48
-4.76868 -1.32523 36.8271 222 212 203
12.8166 3.34012 49.5545 45 48 55
6.34035 -1.98371 36.4533 41 31 32
-2.27212 -1.74876 34.6307 240 231 222
-0.957529 -5.59552 36.0548 211 200 194
5.33984 -9.45623 41.5393 179 166 158
-2.45812 3.98995 31.7242 215 197 185
-4.97437 8.73279 34.6925 70 55 50
-0.572731 -4.22803 34.2255 248 240 238
4.0749 -4.79689 34.8701 167 167 169
-5.35071 -2.9797 37.8719 179 165 164
-21.4121 19.2002 79.7716 28 26 29
-1.8281 -3.87025 34.7212 97 78 72
10.1939 -5.08913 48.5042 172 170 155
-0.795318 5.32614 30.1655 60 51 56
1.35371 1.91974 31.9705 56 48 46
-2.87284 4.74585 31.606 134 116 104
6.95536 -1.30866 37.5101 37 39 38
0.362486 -12.2819 43.3328 172 148 122
-23.6519 21.5086 75.5932 77 59 49
-5.99049 7.49794 35.755 172 144 120
-2.38198 -4.55925 34.5966 112 101 95
0.995621 -1.87084 32.072 124 112 116
11.6452 4.51761 45.5351 49 47 61
-5.19776 -10.6548 45.9365 150 128 115
-22.329 14.4683 81.6937 166 160 148
0.577742 6.45833 29.7766 177 166 164
4.67227 -1.06895 34.0222 172 153 138
0.962837 -6.22317 35.2566 255 238 231
3.43627 -4.249 33.6578 199 181 171
2.51612 -0.9618 33.346 194 181 172
-1.95371 4.38124 31.0881 114 85 69
9.86502 -5.03278 47.8169 125 124 106
-2.62879 -3.61365 36.2145 50 38 40
-4.12941 -12.0342 45.3808 39 48 57
-29.5706 19.2783 90.8903 170 196 219
-6.85021 -8.85728 47.6427 214 203 199
-4.59636 -3.32074 37.4733 158 148 147
8.86377 0.465929 41.7135 34 35 39
-3.0906 3.78169 32.1953 95 82 73
7.18828 -0.669352 37.5754 141 132 117
-2.5428 -12.9524 46.7839 133 127 131
5.32554 -3.49157 34.9602 161 161 149
-5.68704 8.40141 36.0414 136 118 82
-2.71823 -3.74081 36.5165 34 33 31
-1.41936 -2.11128 33.6486 196 186 176
2.90164 1.18803 32.4719 110 92 88
-1.79035 -1.89673 34.6856 206 198 185
1.41377 -4.02901 33.9485 119 102 95
10.8814 3.26319 41.7507 49 59 71
-2.17484 2.62509 31.9788 232 222 213
-22.2106 16.7129 80.4303 166 148 134
-5.57627 6.83034 34.6757 158 158 158
-2.2731 0.61566 32.398 130 116 107
2.68159 2.22474 32.0036 151 142 127
-3.59176 -3.14092 35.6124 104 86 74
-1.29528 -0.830458 31.5826 235 226 217
-5.30443 -2.82744 38.5117 144 135 130
-7.13935 4.72851 38.2733 132 116 93
-23.0126 16.2368 80.519 185 173 157
2.6409 -5.58914 34.6617 191 182 183
-2.41646 -5.66817 35.9913 225 225 225
3.77691 -3.82869 34.006 142 142 142
-4.1429 -1.69708 36.7906 226 216 214
1.20132 -13.0448 43.5201 51 49 52
-1.18744 -5.42454 35.2461 158 145 129
-8.31549 9.2078 39.8931 117 96 75
-2.45808 -3.67601 35.1553 60 41 35
-1.33933 -5.94093 35.7278 224 217 225
7.27512 -3.16249 40.0056 46 45 51
-3.30499 -2.39498 35.8673 72 70 75
5.89361 -2.72987 35.4286 160 151 146
-0.80942 -5.3071 34.6602 168 161 151
-0.330819 5.44778 30.4645 70 63 71
-5.50721 -2.79086 39.7971 143 130 121
2.48013 -10.2798 40.7147 196 183 175
2.71902 2.10778 31.8064 162 152 143
-3.24095 -5.85456 37.2148 223 216 210
2.49261 -10.1017 39.7593 220 207 199
-21.3171 20.4026 78.601 127 111 95
0.980951 -5.93502 35.0531 212 198 195
2.60436 2.03549 32.0284 220 210 200
-1.13018 3.77859 30.3713 192 173 169
2.12742 -0.942046 33.5496 191 177 166
-6.32401 7.85635 35.4469 55 40 33
-5.30616 7.94793 35.0038 89 65 55
9.53896 -1.84997 43.2824 172 169 162
-6.75418 7.28703 36.5235 192 177 148
11.1897 2.24979 46.0545 35 41 57
-0.51346 -8.77214 37.8684 155 125 97
-5.40986 -1.22874 42.8891 230 220 211
4.61289 -3.35248 34.7081 80 62 60
-21.9527 16.1626 83.1258 88 75 66
-1.89876 -5.19215 35.3514 102 85 77
-22.0254 19.7418 77.112 126 113 94
0.367294 6.23006 29.8937 192 175 167
5.09323 -2.04455 34.8775 61 46 41
-3.57376 -2.64986 35.8584 61 54 44
-22.2591 17.6856 79.7046 82 72 62
6.3003 -6.18519 38.9387 168 155 147
-2.92234 3.95359 31.9711 100 83 76
0.0474027 3.36976 29.584 55 55 67
-22.6531 21.2888 75.0087 146 130 117
-4.10568 -3.86945 36.5697 75 64 68
-2.24546 -3.89889 34.1749 168 153 146
4.67352 -4.17769 35.2578 162 152 150
1.02524 -5.87391 35.2966 219 209 208
-2.04868 5.07406 30.9926 191 172 155
-23.5504 17.52 81.947 69 59 68
3.0739 2.73452 31.9051 174 165 158
0.523605 -14.4825 42.9717 33 78 135
3.85899 2.42129 32.9728 151 141 140
-20.1194 21.3138 73.0353 145 127 113
-0.162138 -5.933 35.5964 210 201 192
2.19686 -3.81668 33.4512 93 78 59
1.62986 0.430272 30.9342 76 60 61
-2.91131 4.90263 31.9059 124 109 102
0.946768 -14.4433 42.8761 29 24 21
-8.24022 6.60997 41.2551 218 205 188
-7.583 9.16138 37.5035 134 112 91
2.26969 -3.75961 33.228 115 97 95
-1.18326 -5.36756 36.4386 140 120 119
-22.628 19.3289 75.4669 71 69 46
-1.71664 -5.77569 35.8277 182 174 161
-3.03827 3.12388 32.0975 148 130 128
-26.5378 20.1764 77.5669 125 118 110
3.16352 1.59795 32.5895 124 105 101
1.14998 -4.02156 33.5853 198 193 189
3.05312 0.0576227 32.8827 186 179 171
4.3043 -1.45629 33.9627 79 73 83
1.62029 -5.02131 34.1796 235 221 208
10.1707 0.275223 44.9592 39 42 49
2.11214 1.5233 32.0688 44 42 43
-0.725264 -6.44065 36.1511 242 234 232
-0.750044 -3.93544 34.7236 231 224 216
11.5261 2.14157 46.8728 56 63 71
-22.8554 19.6165 81.6659 26 22 37
0.45602 -14.3478 42.7287 36 72 132
1.5069 -5.35407 34.4267 172 162 161
3.10736 0.0606488 31.8843 192 182 181
-0.644437 0.647445 29.5903 172 162 153
-3.67876 -11.1535 43.6366 205 192 184
-0.807561 0.523116 29.6048 165 151 148
-3.77127 -3.31876 36.2295 75 67 54
-21.6386 19.8102 77.7325 43 36 28
2.91894 0.662239 31.5769 130 116 105
-1.14488 -4.69916 34.9891 248 237 235
0.142946 0.694293 28.7606 177 173 164
4.35819 -1.61086 34.2354 53 49 64
4.51401 1.52889 33.2758 140 131 132
1.55094 -14.0374 42.581 32 78 138
0.106969 -5.37509 35.0622 190 177 169
9.85251 -0.818827 43.8378 145 126 96
-4.96959 2.26468 35.6094 211 196 189
2.43072 -6.56986 36.0807 219 205 204
-21.2439 18.9937 80.3729 91 85 69
-1.35427 -0.173466 31.7744 232 215 205
3.42699 -3.55786 33.9425 80 52 38
2.29258 -10.8501 40.73 203 184 169
1.7678 -6.28957 35.6179 213 209 206
1.97104 -1.66334 33.3304 64 55 60
-5.74129 -0.25294 37.4302 152 141 137
-2.52693 3.09211 31.9684 200 183 176
0.57734 -7.21813 36.135 192 174 162
0.0559761 5.85559 29.824 209 195 186
2.03658 1.6597 32.1358 58 56 61
3.39987 -3.53525 33.5453 82 54 42
3.54329 0.802375 32.7907 166 155 153
4.55092 -3.47498 35.1825 81 64 54
2.98144 -5.43915 35.1858 215 211 202
-6.84432 -7.69092 45.6802 156 140 143
-3.36811 5.52877 31.848 161 149 137
2.60371 -12.4563 45.2875 69 87 133
-7.09897 6.4727 37.9771 156 133 102
-26.8048 20.8142 77.0183 134 131 116
-3.36421 5.78611 31.8603 198 184 175
7.46049 -0.107483 37.2358 48 49 35
-2.82783 -1.80115 36.0165 116 98 96
-23.8863 19.2392 84.2307 137 118 103
4.21946 -1.47904 33.5073 74 69 76
6.01325 -8.36831 41.1478 160 141 134
1.97011 -4.19689 33.1996 200 186 185
-22.7554 17.9349 78.2885 141 125 109
-5.08827 -1.85302 37.6221 195 186 177
5.40809 -3.62535 35.2475 166 162 161
1.4519 -14.125 42.5697 49 79 131
-7.13595 7.30019 37.1001 132 105 84
-2.19055 -3.90801 34.5953 192 176 163
0.0850151 -5.41886 35.2197 179 164 157
0.552804 -7.37739 36.1718 197 187 186
5.37813 -3.6593 35.1336 157 151 139
3.46088 -3.701 34.093 73 51 40
-9.46409 -3.96393 49.608 56 105 174
0.350182 -14.8291 48.3249 41 38 49
-3.64451 5.89374 32.0637 167 159 156
-2.51531 -3.08015 36.213 89 83 83
-21.7268 21.7864 75.343 106 93 74
-20.2008 19.5482 73.6909 119 102 82
-4.49247 6.6042 33.0071 182 166 166
2.2495 -3.44189 33.4986 105 78 61
-27.8438 20.6645 79.179 43 62 77
-1.71764 -12.1748 45.003 209 202 192
0.652671 -3.69349 32.8428 230 221 212
0.565289 -11.6772 36.977 27 22 29
-0.339202 3.24989 30.6795 25 19 23
1.69684 -5.07763 34.1536 241 233 222
-6.40119 2.28498 37.0889 151 142 143
-29.1329 20.9397 87.4741 52 78 103
-1.88825 -0.455568 32.6869 207 197 185
-7.39357 3.50756 40.2232 159 149 140
4.81588 0.730274 33.7133 84 77 67
-28.6886 21.8781 85.8433 86 79 69
0.295605 -14.5106 43.6193 42 76 137
-7.41104 5.53972 38.4724 177 159 137
2.52312 -8.84894 39.135 197 176 173
-2.18775 -6.3301 36.7691 229 225 222
3.98871 -3.61319 34.2044 61 51 41
-4.22499 -4.25733 36.6241 170 158 158
1.50569 -14.3008 41.9773 35 30 37
-3.74197 4.98758 32.2923 147 126 109
-0.687102 -8.77663 37.9646 201 184 166
-22.7199 15.365 87.4405 115 110 106
-3.74058 -3.40635 36.4244 60 55 62
10.4001 -3.10499 47.6444 75 81 79
-7.76606 9.59404 38.758 103 84 69
0.870234 -10.9721 40.7325 217 207 198
4.03028 -4.49405 34.0452 183 183 173
5.77246 -8.14004 39.9693 188 172 157
1.0282 -4.89091 34.0903 177 173 162
3.95356 -2.42602 34.432 40 35 31
1.22126 -5.28174 34.2681 198 191 183
3.49812 -3.49631 34.768 53 39 36
-2.88466 6.88901 31.2303 184 170 157
1.57661 -13.8708 43.12 36 77 143
1.83165 -6.51114 35.7344 250 240 238
-3.13701 -12.2155 46.4336 213 200 192
-4.14023 -4.02152 36.786 61 48 39
-24.9604 19.7185 76.9289 134 123 105
5.255 -0.877925 33.5184 216 205 199
-21.9753 16.4438 82.0879 153 141 127
2.20886 -5.02771 34.3787 215 207 194
-22.9506 19.2538 79.206 107 93 82
-0.489148 -4.87645 35.054 217 208 209
4.83359 1.11688 33.4845 85 72 66
-6.5523 2.30927 38.2922 127 117 115
3.00703 -0.721418 32.7597 136 123 117
-26.1839 21.7589 79.9043 142 132 105
2.68336 -4.83726 34.0991 217 207 198
1.42028 1.30054 31.4174 49 34 27
-0.721951 5.97037 31.4214 194 180 177
-1.18019 -4.53314 34.681 220 212 209
3.06724 -2.52346 34.3709 79 77 80
24.6886 -12.778 -60.5414 166 192 215
3.22535 -3.93528 33.5517 142 129 123
1.4574 -5.8962 34.9753 217 199 189
5.33355 -3.03004 36.1571 79 70 63
-1.74553 5.33784 31.2017 222 211 191
5.0467 -3.6286 34.7204 143 129 128
-0.858647 -2.11876 32.1857 208 196 184
-0.371869 0.738019 29.2102 98 91 81
-2.6891 1.44141 32.9012 148 133 126
3.81257 -9.93353 40.2709 208 192 176
-1.53398 -5.38436 35.1773 223 210 204
0.818226 -1.26703 31.0538 155 148 142
-22.6124 20.6707 75.7976 151 135 112
-7.70826 -1.26691 43.3641 142 132 107
-3.37808 2.70755 33.0034 225 214 208
0.85902 0.413731 29.0668 119 102 92
-2.69806 -3.34337 35.9554 44 42 45
0.0785546 -14.4537 43.8728 35 79 144
3.06646 1.959 31.9052 154 140 129
2.90618 0.452683 32.3997 146 140 128
-2.3146 3.22621 31.2183 180 162 148
-0.87352 -3.53153 34.1559 217 208 201
-6.13494 5.94441 36.3252 131 120 116
-3.44043 5.83538 31.8417 192 178 169
-2.60581 -4.37216 35.1144 106 98 87
-8.89029 9.37141 41.0352 118 99 85
-0.850991 4.10655 30.5071 107 78 62
0.846769 -1.49904 30.1935 165 146 139
4.39922 -3.28341 34.158 77 59 49
3.29933 3.00303 32.0637 115 106 109
1.99591 -9.28388 37.3457 228 220 218
3.43458 -2.59957 34.0075 91 85 87
4.2915 -4.29587 34.5339 176 166 156
0.431624 -13.008 43.3403 184 163 142
-2.81413 2.28584 32.0601 147 125 111
-2.62701 3.56958 31.9731 151 126 119
4.30427 0.928158 33.2426 137 129 127
1.64471 -1.32276 32.7287 160 141 134
-8.67004 2.68434 42.5901 173 154 137
-2.6531 -4.44522 35.246 109 95 82
2.17286 -4.8866 31.509 151 131 107
4.96187 -8.9725 39.9026 172 151 132
0.588072 -3.78367 33.4048 230 222 219
9.53671 -3.10829 45.1356 116 113 104
-20.5165 16.8476 80.1079 27 24 31
1.05155 -11.1529 40.8714 214 205 198
3.58779 -4.98995 34.458 167 158 153
0.017669 1.25401 29.2696 121 96 76
0.643843 -6.17899 35.2708 202 192 190
2.23787 -2.38119 33.2012 93 82 80
-3.36041 2.76587 32.9385 222 211 205
3.42761 -2.68427 33.7172 95 88 80
-27.2497 17.8648 89.0138 167 189 212
-2.79227 4.34946 31.8352 202 189 180
-2.52288 1.70743 32.9985 201 184 176
-1.94202 -5.56683 33.4065 224 220 221
-25.1035 20.0364 77.9899 148 136 110
-9.01688 4.71236 43.4067 189 177 161
6.46527 -0.262012 36.428 94 93 98
2.42673 3.00983 31.7834 65 55 56
-0.375876 5.83605 29.8421 227 208 201
1.29087 -3.56906 33.6222 82 66 43
-6.94192 6.58144 37.3755 182 155 128
25.0732 -13.2247 -57.7033 57 83 116
16.2936 -9.36765 -42.1817 54 82 119
3.48491 -0.590175 32.7878 163 156 150
0.652844 -0.129627 29.2854 229 217 205
2.37453 -2.44288 33.9082 93 83 84
-0.976308 2.89565 31.1356 140 132 113
1.88407 -5.8475 35.1459 212 203 198
-1.35613 2.17146 31.6187 62 53 56
-2.52391 0.227018 34.1163 196 184 172
-1.89331 0.81626 31.4754 100 87 79
-2.64625 -2.68172 35.5099 57 55 58
-6.42332 8.71379 36.2836 180 165 158
-5.32789 7.69065 35.0974 84 68 55
3.4794 1.34618 32.8474 149 139 137
13.4123 4.23307 49.3465 115 114 120
-1.37289 0.286235 30.8518 177 163 152
-1.57244 2.98857 31.2808 166 149 141
-1.71833 0.0590975 31.7796 206 197 190
3.87523 1.45318 33.4762 83 75 72
-1.65311 3.53318 30.8386 70 64 68
0.611468 -4.1111 33.7839 198 185 176
-2.7541 -2.7103 36.0257 57 58 60
1.42385 -3.06324 34.5242 75 64 60
0.0849038 -6.73627 35.6496 218 213 210
-6.5112 -9.19668 46.4422 210 196 185
-0.765463 4.09361 30.3796 108 79 61
-3.72485 -4.04504 36.0219 90 72 62
-4.71325 4.51185 34.0149 190 172 162
7.0717 0.887903 36.0995 83 74 65
-2.24744 2.82632 31.5441 160 141 124
-4.01808 -5.86255 37.3275 211 197 186
2.37644 1.92022 32.0233 64 61 70
-6.48223 -0.153528 37.8808 194 186 183
-1.2943 3.61593 30.6479 162 154 143
0.662108 6.13035 29.804 68 62 72
-0.516814 2.97553 30.1604 104 81 65
3.06163 -5.20341 33.8184 142 123 108
3.17863 -1.97505 33.8864 96 83 75
-20.5325 21.2179 76.3329 137 123 97
1.70177 -4.82374 33.9908 219 212 204
-3.25009 -3.411 33.6205 68 49 42
1.61656 -1.40361 32.552 153 135 121
5.18815 -2.81775 35.1804 77 73 72
-0.283613 2.28689 30.2787 69 62 69
-21.6186 17.8548 79.5985 75 64 68
-5.80416 -6.16812 43.0245 170 151 147
7.58409 -1.98312 40.2297 151 157 145
3.7779 2.11565 32.8943 104 102 103
-4.04034 0.653958 34.5406 190 180 178
-0.887299 -7.44033 37.1341 194 178 162
-23.3587 17.6152 79.2209 139 124 117
2.86221 -14.0974 44.4559 37 79 139
-3.66614 0.0433909 34.6676 195 178 168
-1.17706 -7.744 36.8781 224 216 213
-26.6239 20.4866 75.4283 139 134 115
4.40051 -7.08389 37.468 188 173 170
3.07325 -2.6659 34.0595 86 78 75
-23.5656 14.7361 86.5749 157 192 222
-0.732899 4.1659 30.2834 93 64 50
-3.50749 6.63167 32.1481 198 180 168
-2.86166 -0.270811 34.0282 236 231 225
0.8861 -9.19172 38.5831 170 156 145
-0.914337 3.9712 30.2071 108 82 67
0.805754 -2.7481 32.9538 196 188 185
0.706419 -9.57126 38.7495 215 205 203
1.70279 0.68837 30.405 74 49 42
0.31708 3.36038 30.9332 18 18 26
1.44505 -4.35676 33.5836 180 164 165
12.2988 2.25059 46.5151 88 139 202
-7.65493 -6.18597 46.5021 140 130 120
-4.23659 3.09409 33.8915 205 193 181
-1.99845 2.38208 32.0493 208 187 170
-22.5463 18.4374 71.5176 140 123 105
1.99283 -9.94435 38.9773 221 210 204
-2.71441 1.48471 32.5173 134 114 113
1.74377 -9.77461 39.8767 226 215 213
3.00881 0.824073 32.1008 103 89 86
-28.1787 18.2295 92.0338 166 191 221
1.69305 -9.45337 38.6696 226 215 213
0.608696 3.23403 30.5844 37 27 25
1.15699 1.27666 30.4493 39 26 18
4.42097 -1.25294 34.0201 208 195 186
0.246228 3.22323 30.1904 22 20 23
0.204916 -5.05001 35.0219 232 224 222
-2.3669 2.80666 31.83 201 181 172
-3.41378 3.25903 32.5197 186 175 171
-1.4724 3.26026 30.4579 83 67 52
2.41055 -9.0706 38.0522 224 215 210
-0.963292 1.22981 31.1004 52 36 36
-8.06318 -7.24839 49.4471 192 185 179
10.9476 -7.27726 -26.698 78 95 89
9.46361 2.95739 41.0785 139 131 118
-0.320665 1.55842 31.5171 71 48 40
7.99475 2.39307 38.0732 76 72 73
-3.56235 -3.18758 36.0863 89 63 50
5.50731 -3.49078 35.2445 169 161 150
0.775188 0.11022 28.8362 181 164 156
3.28828 -13.8292 44.2858 34 79 144
1.41131 -8.23296 38.7735 210 197 188
3.91382 -1.07613 33.4933 188 180 169
-0.73373 -1.34357 31.1967 244 229 226
4.36837 0.565004 33.5496 106 101 97
-5.17384 -9.64343 44.1997 185 165 141
5.87401 -1.64504 34.8588 162 150 134
-4.328 2.679 34.7518 177 159 145
-3.41249 -4.77823 35.5728 216 206 196
-1.20009 -7.93971 37.4191 229 223 223
-8.18877 10.5932 38.4446 42 43 37
11.5662 -7.88414 -27.1761 82 77 83
-1.22359 5.94538 30.1064 226 216 206
13.1483 3.1131 48.8673 125 131 129
0.300573 0.835262 28.93 102 79 71
-0.916004 -8.59301 37.9523 221 211 210
4.75525 -4.32829 34.8458 174 166 164
-1.5948 0.50189 31.0673 147 131 118
5.31857 -5.7583 37.1632 149 136 128
0.634058 -4.73547 35.1563 199 184 177
-22.8352 17.5726 81.8075 140 126 113
-22.0276 22.0349 75.5563 115 95 84
1.77369 -5.41708 35.0735 241 224 214
-0.330591 6.66497 29.5285 200 183 167
0.951766 -1.55282 30.7344 152 137 132
5.67109 -2.1762 35.2227 69 62 52
-2.38096 1.45308 32.7197 189 170 155
-5.14289 -7.23349 42.2374 195 176 162
-3.61013 0.579228 34.7064 181 174 168
2.18833 -6.77777 35.9732 203 186 176
4.90597 1.42513 33.8085 99 88 82
-6.26022 -7.11734 44.5163 187 175 161
0.477028 3.30553 30.9452 26 23 30
-24.4055 18.1663 78.7051 127 118 101
2.63761 -6.7634 36.551 214 203 199
0.548215 2.90587 30.5443 113 93 82
3.11236 -2.68831 34.4153 86 78 75
1.47043 -8.93089 38.1483 223 204 187
0.253341 -9.22983 38.5486 196 182 179
-1.49764 5.68911 30.6153 233 220 211
0.342401 -4.45494 34.8251 240 235 231
-20.7958 13.4277 81.8298 102 98 86
0.357961 -4.95478 34.6744 226 212 211
3.97856 0.142304 33.0157 145 132 126
-3.67692 6.11857 32.3123 181 170 166
-4.48246 -4.82621 37.7115 182 169 160
1.26455 -4.49181 34.0987 227 220 212
1.58401 -2.60128 33.5745 63 51 51
-0.374781 -9.04054 37.512 195 181 181
-3.9306 6.70453 32.3031 172 157 138
0.508827 -4.3874 34.1709 211 204 198
0.132303 5.90953 29.6066 209 192 184
2.07934 -4.37982 33.4478 203 193 184
-0.421518 -4.97719 34.7542 210 200 199
2.49548 2.83208 31.5299 83 73 81
-4.66883 5.28578 33.3754 138 120 110
-2.52075 0.197771 32.9369 205 192 183
1.48659 -3.13411 33.4549 62 45 38
5.78908 0.274548 34.0356 79 71 68
2.50283 -3.7679 33.6731 74 47 40
-0.97277 -6.62161 36.5573 224 212 212
-1.4644 -1.6314 33.5925 206 190 174
-3.37303 -7.17094 38.6849 201 190 184
-5.01736 5.60645 34.3971 137 127 126
6.92625 -3.20269 -14.021 52 83 112
-4.00397 5.80071 32.6175 132 117 114
5.70714 -0.470006 34.1626 147 140 132
-6.67574 9.18567 36.1137 190 167 136
5.98976 2.92684 34.7836 71 61 62
5.2117 -8.74908 40.5058 178 156 143
-3.49475 -4.5208 36.0559 154 135 129
-3.35157 -8.45836 40.2957 209 193 178
-4.89814 1.8576 35.0602 158 146 146
0.154381 -1.25773 30.1289 244 239 236
-5.26162 8.42746 35.3565 95 71 59
1.88499 -2.16338 34.2054 55 53 56
-2.69556 4.1419 32.1565 222 204 194
2.39198 -8.92875 37.2868 216 206 196
4.39459 -4.06745 34.6831 112 97 104
12.1574 1.5101 45.6306 85 134 200
-2.02037 1.91034 32.1463 212 199 190
-2.72408 -1.15245 34.9194 200 187 179
1.80479 -6.72629 36.3708 220 204 204
-2.85354 5.8157 31.7647 221 207 194
-5.46301 5.1704 34.7776 140 123 115
-0.510833 -7.47587 36.4449 238 234 235
-0.499229 -14.76 41.4796 31 77 136
3.67796 3.32852 32.4245 94 85 86
-3.65083 6.97793 32.1189 138 116 102
2.99968 -4.04703 33.5592 188 170 160
-3.8887 1.11654 34.4532 207 196 190
3.65938 -4.34459 34.1777 158 141 131
-4.43484 -7.51028 40.9877 207 202 196
-1.35899 0.65379 31.0398 93 79 68
3.51971 -7.74919 36.8146 162 145 135
1.58334 3.5975 30.5466 55 38 31
3.88295 0.285231 33.2635 183 173 174
5.10216 -2.75731 36.1732 82 70 56
-21.5264 17.2313 80.9868 103 90 81
2.26634 -4.2587 33.2046 173 158 155
2.06818 3.04985 34.9838 60 54 58
-3.26523 -3.97858 35.8927 145 131 120
-1.62553 -3.35599 33.2671 106 87 80
-21.6605 20.9009 75.4316 117 99 77
-5.92722 8.71055 34.861 160 144 128
-20.8852 17.5731 80.9766 27 26 31
4.33978 0.177445 33.3737 190 177 169
0.347215 -0.682653 29.4333 220 215 209
-4.7958 -7.58385 41.8232 202 179 163
5.83684 -7.11687 40.5922 178 161 145
1.98419 -5.9968 34.8085 220 210 211
3.0085 -2.15858 33.6393 105 96 99
-1.96078 6.1256 30.3267 215 206 197
0.0282496 -6.16685 35.6371 226 212 201
-2.82955 3.72967 32.4308 100 80 69
7.70845 2.25028 37.1887 74 70 69
-0.342751 -13.2525 43.9507 38 52 16
-0.973609 -14.2685 42.1431 24 75 138
-8.92085 -6.32676 48.2062 47 96 162
2.5306 -4.6813 33.1789 206 196 194
-5.0536 -1.30615 37.0447 211 200 194
-1.50397 -7.64806 37.1817 221 214 208
4.86622 -5.51048 36.2907 186 171 166
0.655006 -9.78269 39.198 219 207 207
-3.61713 1.30122 34.2538 217 208 201
-1.24622 -11.3339 41.5754 224 214 205
0.741898 -14.14 43.1243 20 18 23
0.286762 -0.677495 29.991 214 211 206
2.42771 2.6156 31.8654 76 69 76
-1.36507 4.4338 30.9397 81 63 53
-0.345088 -3.77007 33.4453 241 238 231
4.94324 -3.0437 35.0854 83 68 63
3.41669 -1.42071 33.0264 63 62 76
-2.28168 -0.159518 32.7823 211 204 198
0.177874 2.29695 30.5697 46 39 47
-3.1887 -3.55186 35.6368 64 58 68
1.00215 -2.90438 32.1547 146 131 126
4.84542 1.74927 33.3628 85 71 70
6.41475 1.58354 35.346 57 55 58
-0.792865 -5.05528 35.1818 216 206 205
-1.00291 -14.6659 42.1948 35 35 47
-1.43685 6.27736 29.7601 218 209 200
-1.59291 -1.05594 32.2974 226 215 211
-0.0845031 3.05204 30.5403 88 70 58
-0.177701 -10.1886 39.7839 219 216 211
3.72915 1.53455 32.1636 97 88 83
-5.4734 8.81691 34.2161 193 185 174
-5.06423 1.89562 35.5239 136 123 117
3.85553 -4.80589 37.1697 186 173 157
2.07025 -4.7115 33.6864 218 210 207
-3.9972 0.754042 34.82 185 170 175
3.39592 -12.3741 44.4971 50 65 108
-4.02957 2.5853 33.2651 139 121 111
-3.20734 -0.135412 33.9766 223 208 205
0.556141 -5.44387 35.202 208 199 194
2.29856 -7.71276 36.4127 207 193 192
3.51186 0.432094 32.8008 171 161 159
-0.253341 5.91651 29.363 231 214 204
3.77419 2.08979 33.2792 101 97 96
-1.49363 6.16192 30.2285 207 194 185
-1.97927 -1.08575 33.2246 216 204 192
-0.889883 3.12675 30.9919 120 91 73
-1.0733 -1.12614 31.7034 208 192 176
4.47103 -2.87174 34.4421 83 73 71
0.48051 -1.25533 30.0739 221 215 217
1.8594 -3.25786 33.8211 102 74 50
2.16925 -1.74715 34.4362 74 68 82
-0.142969 -0.944069 30.0198 238 229 230
1.84832 -6.87296 36.6867 191 183 181
1.80772 -3.2344 33.9162 90 64 37
-4.55291 1.61618 34.8388 170 156 145
0.39836 5.197 31.0198 95 81 78
2.63598 -2.59884 34.0867 61 58 53
3.6581 5.71565 32.7147 99 87 89
0.430559 5.89232 30.1023 73 67 77
0.141566 -6.12408 35.4893 197 184 178
-2.1852 2.27551 32.1115 186 171 152
0.412777 -0.741156 30.0069 212 208 197
-5.32599 -6.83106 43.0142 205 190 185
-4.7241 7.46261 33.5507 107 85 72
-1.74502 -1.25281 32.8965 194 181 172
-24.5067 18.6891 79.7539 143 129 118
-1.83636 -0.301235 32.3158 178 169 162
-5.3431 -8.61255 43.9058 193 178 173
0.893888 3.98628 30.3474 64 53 59
-4.61367 -5.31319 40.0015 157 144 127
3.69142 1.68943 32.9559 85 79 81
0.858023 1.49149 31.0127 61 43 33
-0.218753 -7.08794 36.5273 189 180 173
0.761058 -0.494115 29.6397 217 204 195
1.10519 4.19291 30.5817 122 99 83
-23.821 20.7647 74.0161 89 71 57
-0.369514 0.504226 28.9376 155 150 147
-1.74498 5.67388 31.0487 234 225 220
-2.73146 -5.99724 36.1075 191 181 179
0.237085 0.940059 28.8695 110 88 67
-0.802756 -7.07123 36.4314 193 188 192
-1.97629 -4.83578 34.8949 184 174 175
-5.05045 1.84223 35.3736 167 154 148
-1.54883 -6.87186 36.446 220 215 212
-2.879 -6.36135 36.8915 216 205 199
-0.0389729 -9.36704 38.3678 223 211 213
4.89581 -7.87327 38.8124 179 163 150
3.15836 -14.0388 44.1425 46 77 121
1.86488 -15.3573 43.2208 42 66 110
0.402709 3.04309 30.8188 93 69 57
-1.70913 -10.3994 40.9821 206 196 187
13.4074 3.86938 48.4954 114 151 204
1.67547 -1.14149 32.092 178 164 155
-2.61427 2.07144 32.7614 193 176 168
-5.16601 7.23848 34.4642 126 106 95
1.43261 -6.83788 35.8362 208 197 191
-6.38958 -7.02764 44.2584 188 170 158
-4.17436 -0.282905 34.9015 187 168 162
2.9488 -11.4396 42.0566 40 82 142
-1.61868 6.70158 29.7994 181 164 154
4.44388 2.30905 32.9618 81 70 66
4.74752 -1.08133 33.8608 199 183 170
-3.86498 6.20931 32.4099 159 136 128
-5.27649 -8.23761 42.6611 177 161 146
5.7987 -4.64412 37.5809 173 166 160
-6.02373 5.84371 36.2671 138 123 116
-3.03906 -6.39262 37.691 195 182 173
4.12744 2.90623 33.2995 129 119 118
0.890739 -4.62498 33.9651 233 222 204
-22.8123 13.8546 88.101 169 166 161
0.563269 -5.4707 34.7009 217 208 203
-1.48852 5.99489 29.895 230 216 207
-4.41337 -2.39591 37.3387 70 54 39
-2.24967 4.79367 31.4362 117 92 70
4.82604 -8.74631 40.2008 182 168 157
1.82454 -2.89472 33.9185 57 43 40
2.3015 3.69029 31.0251 103 84 69
1.96895 -3.50035 33.2488 89 67 46
-0.0750798 1.84348 30.5687 54 38 38
-21.8603 17.1125 80.9137 118 103 100
-0.883135 -0.923522 31.14 215 202 194
3.78083 2.68083 32.5358 111 99 99
2.60876 -13.001 43.5866 37 82 149
-2.37426 5.36279 31.5119 185 166 160
5.10433 -0.448097 33.7641 174 157 147
4.42567 -8.04251 39.3741 156 141 136
0.690558 6.42182 29.7446 203 190 184
1.82622 -14.3875 41.9387 22 49 96
-5.36895 5.75294 34.9027 124 106 104
5.7915 -0.459905 34.1205 160 150 141
-5.02345 7.97501 34.5063 106 76 65
-0.281982 -10.2968 39.9596 211 203 192
0.624292 -1.02983 30.6886 218 204 204
3.58889 -14.726 44.1712 35 79 150
0.148138 -0.775332 29.7339 225 220 217
-4.73949 -9.62028 44.6968 184 166 152
2.04169 0.637968 31.0203 105 95 93
-2.75539 5.85998 30.835 191 175 162
-0.525199 4.3107 30.2107 120 92 70
0.939579 0.161272 29.4149 155 136 132
1.59519 3.89152 31.257 65 63 74
-4.40642 -0.798758 35.289 217 213 204
-2.95709 -0.0666449 34.2482 198 190 179
-23.4781 20.5801 77.1717 149 132 122
2.33476 -8.02653 37.0598 222 206 191
-0.101621 6.58828 29.6124 190 176 167
-5.88456 4.17596 36.5939 144 128 128
-8.16358 -1.3891 44.0437 101 117 150
-0.33317 -15.055 43.0793 29 28 60
-0.11669 -8.78952 37.7567 170 155 152
0.211372 -6.35817 35.132 215 206 207
1.85566 -4.57707 33.5739 241 234 228
-4.27727 -4.48119 36.6335 165 152 143
4.00125 -5.87074 35.761 185 174 172
-6.06874 8.48728 34.4673 122 105 98
-3.50901 -6.99361 38.9797 210 197 191
1.81066 1.70096 31.6118 57 48 51
-6.6175 9.35017 36.8779 169 144 122
-3.17706 -14.9597 47.0616 34 73 138
-0.513741 -2.82181 32.4061 194 184 175
0.267044 2.5434 30.367 76 66 67
3.78003 -2.93402 34.0845 77 57 33
1.72487 -12.9699 43.4183 21 53 94
12.4893 -7.49118 -27.2246 48 67 74
-4.49352 1.35351 35.0522 177 158 144
4.81071 -5.28472 35.8932 176 171 168
-5.64008 -6.26026 42.7287 174 154 153
-2.18345 -7.77788 37.4936 225 215 213
18.9337 -10.4155 -45.9234 54 81 108
0.470631 -2.43606 31.3985 246 237 230
0.555971 5.27386 30.1813 61 56 63
-5.43646 5.69328 34.7764 132 113 107
2.93513 -13.3052 43.5533 37 77 147
1.84903 3.75666 31.5976 68 50 38
3.3014 -14.5236 43.6402 38 72 136
3.67791 0.768552 32.8524 161 146 139
0.666374 -1.09334 30.424 177 168 159
0.174008 -2.06691 31.1409 236 229 223
0.495194 -2.49708 31.4494 216 203 194
5.32846 -7.53806 39.7552 177 165 149
-2.43797 -1.14328 34.6762 207 200 192
1.33777 -4.46759 33.8304 213 205 203
3.43937 -12.5617 43.8944 37 82 150
1.39757 4.35111 30.3903 106 86 77
0.0843578 -2.08234 31.2813 218 211 203
-2.59465 -1.41128 35.3425 214 207 197
-24.4007 18.2486 81.3311 158 145 128
-2.00135 -0.838737 33.5051 193 180 171
-4.77255 -8.21585 42.3913 170 145 138
3.12281 -9.64139 39.9122 146 128 128
0.0272443 5.26039 30.5453 73 68 74
5.73534 -5.42434 37.8258 145 132 123
4.22455 -6.63997 37.3494 175 163 163
-1.61105 5.98498 29.5035 201 185 172
1.25835 2.93561 30.3906 100 81 74
0.314513 1.23901 29.1717 134 102 77
-4.4858 -7.79142 41.2848 191 182 165
4.90678 -5.93628 36.834 162 151 147
3.54745 -4.05722 33.3592 110 98 86
2.92198 -6.76074 36.8002 190 173 165
1.04972 3.23982 30.6579 95 77 55
2.47371 4.33306 32.2914 64 53 59
2.70813 -4.11709 34.0517 165 150 143
3.27084 2.41338 32.0805 124 115 108
-4.85804 -0.394394 35.8852 182 165 157
-5.27976 6.15096 34.5106 124 106 92
-1.09263 -14.2538 42.2329 36 73 141
-0.192842 -14.6955 42.6471 20 26 42
0.359625 -3.27328 32.3593 232 225 219
-3.57315 -9.90474 41.5261 207 194 186
-0.193941 6.11274 29.7715 217 197 188
4.39649 -6.45721 36.3722 187 182 179
5.00197 -4.35058 34.4302 141 132 123
1.40003 2.26251 30.7001 66 59 66
-3.04221 -8.00514 39.2595 219 203 190
-1.61685 6.02421 28.9608 204 187 179
3.30632 2.58061 32.6662 161 150 146
5.06731 2.91819 34.1537 94 81 73
-2.4504 1.02071 33.2085 155 133 122
2.30437 2.69945 32.4338 63 52 56
-8.87435 -4.89868 47.2088 54 101 169
-2.51862 6.88593 30.4907 191 175 159
0.021538 -2.05548 30.9967 197 187 186
6.30873 0.361565 35.2923 83 78 72
-2.16786 -7.76606 37.7461 220 208 208
-4.80749 -9.37859 43.3915 145 130 123
-2.02665 -3.47712 34.504 86 70 54
5.92345 1.64266 34.8489 87 77 68
-0.279072 -0.724214 30.1461 186 177 168
-2.8463 0.405308 33.6411 172 159 151
-4.01723 5.71165 33.1496 167 156 152
1.39993 -4.23428 33.5232 157 144 136
2.21057 2.64262 31.899 67 57 56
4.30211 2.60807 32.8374 83 75 72
-0.541754 1.24271 30.8057 91 66 46
2.62272 -7.42286 36.5442 175 159 143
-5.55914 7.92632 35.0017 161 131 105
-4.774 1.35754 35.1373 159 150 143
-0.405758 1.20271 30.2189 105 84 65
-1.60412 -10.0832 40.1905 216 207 202
4.92621 -7.38802 38.9296 168 154 145
-0.174822 4.21043 30.2435 105 78 69
-3.90293 4.8099 32.6136 161 146 139
-4.58488 -6.62443 39.9097 199 182 174
-0.767953 -7.36576 37.5851 194 189 183
5.89599 -6.46904 38.9848 140 126 115
-0.285915 -13.9236 41.0817 36 73 141
1.3919 2.67807 31.3802 51 47 61
1.9794 2.89176 31.2992 53 46 54
0.881038 -2.05498 31.3351 125 105 106
-4.74118 -6.70323 41.1372 170 154 138
-1.88123 -2.64189 34.5014 95 86 89
-0.779959 -6.55527 36.2157 234 221 212
-0.334784 2.23915 30.6571 62 53 56
3.04143 -6.30178 36.3357 238 229 224
6.36824 2.64992 35.4467 92 85 79
2.41342 -3.74784 31.5258 154 140 127
-1.52796 -13.5974 46.0638 56 59 76
2.85865 -5.73139 35.4441 173 163 162
-2.17387 2.02021 33.0538 198 184 175
1.14238 -15.1666 42.7206 49 79 141
3.6381 -12.0801 43.6109 37 81 152
1.05069 -0.650492 30.2483 189 169 160
-23.3217 14.5991 82.351 165 192 221
-1.76544 -0.996678 33.4067 232 222 210
-4.14058 0.0925802 35.0496 190 177 169
1.46828 0.850828 30.1977 95 75 68
4.97238 -1.34901 33.6032 184 174 165
4.20142 -2.8987 34.1646 65 48 32
-26.9922 18.3499 92.4105 158 158 150
-1.94308 -7.56987 37.253 218 208 199
3.68065 -1.97523 34.108 80 72 70
-6.33396 -4.28012 42.1873 177 160 144
-3.57846 -0.812979 34.8377 226 219 211
3.1579 -13.4253 43.9763 40 78 143
-4.32547 0.501435 35.4316 187 170 162
-5.89727 3.02534 36.4677 148 139 132
-1.20926 -9.8283 39.5949 214 199 192
2.2252 2.60629 32.4013 68 58 59
1.47663 3.14987 30.0996 109 84 64
1.57137 4.07225 31.0775 63 54 57
4.21637 -2.97686 34.4319 77 58 44
0.46407 3.90009 30.328 66 61 68
0.0187398 5.11663 30.6513 63 51 55
2.7628 -2.03084 33.9207 73 71 76
-26.7313 17.5438 89.7083 136 132 131
-6.35385 0.545941 37.6023 142 131 127
-1.42793 6.5931 29.6822 156 136 127
45.8503 -20.6078 -101.636 161 189 211
-2.74619 3.39915 31.2439 138 120 106
0.027834 6.10207 29.6184 215 196 189
6.51047 2.50738 34.8915 73 65 52
3.44859 -1.85697 34.2842 90 78 78
-2.46652 2.10743 31.5577 224 202 189
-5.18978 -0.574377 36.8615 166 152 151
4.90254 -2.74271 35.1015 90 76 65
-1.85252 -6.52993 36.4174 192 183 184
-2.27224 5.86544 30.8538 228 213 206
-4.68769 6.08593 33.6161 130 116 113
-1.60082 1.92003 31.8748 73 63 71
-2.0385 -2.58575 35.3213 87 82 78
-3.86004 2.15564 33.7563 202 188 179
-3.20052 -9.83331 41.2445 201 189 173
4.66736 -0.923705 33.6951 194 176 164
-2.23128 -2.58087 35.4267 78 74 75
2.23434 4.31849 31.4753 78 69 74
6.43305 2.62026 35.3666 81 72 63
3.35092 -6.38659 36.0195 198 188 186
2.11857 -13.0705 42.3723 34 79 146
4.42983 2.15973 33.4198 88 75 67
1.39522 -3.43392 33.835 92 70 56
-4.41447 0.149177 35.4639 169 158 156
3.20635 -14.2904 42.9389 36 58 118
1.64377 3.82835 30.6957 67 64 75
4.0684 -8.0657 37.9257 198 185 177
-6.41706 1.10608 37.4568 141 130 124
1.68095 -4.28448 33.2497 217 203 190
-1.22823 4.90474 30.9445 72 49 41
-5.10887 7.77929 34.6098 92 74 64
4.64658 -4.49288 34.9847 217 205 189
3.37874 0.952171 32.2465 166 155 153
-5.20964 1.04954 36.344 166 149 142
2.16525 -3.21808 33.686 80 52 41
0.0222997 5.10876 30.7359 77 63 63
-4.46251 -0.239872 36.349 164 147 137
5.92477 -6.76045 39.9547 126 114 102
0.927845 -0.757418 30.1377 190 172 162
-2.45242 -1.3295 34.324 203 196 188
2.91039 -6.01615 33.6671 180 170 158
7.91582 2.30997 39.2294 72 64 61
-0.622872 0.922735 29.5029 95 76 62
0.962064 1.05113 29.8831 95 72 54
-5.12983 6.93602 34.4334 116 99 92
-3.06445 -14.9835 44.393 34 50 84
4.22832 -13.7155 45.3298 32 79 151
-1.07534 1.99365 31.5614 71 61 60
2.89336 -1.42077 33.9366 74 72 83
2.18205 -14.3246 42.4312 37 78 134
6.35117 1.6067 35.7888 60 55 61
5.73872 2.8357 34.8644 61 51 50
0.936352 -2.30454 31.937 175 161 158
1.00743 2.67115 30.4119 74 72 75
0.811772 -15.0428 43.8248 26 26 24
-4.85545 4.49868 34.4506 178 164 155
-1.71578 -8.21686 38.0035 202 188 185
3.50105 5.23127 33.1607 88 75 69
0.779462 1.03647 29.5332 102 73 65
-5.38539 2.03677 36.0241 193 184 179
0.0421963 6.41554 29.4374 171 147 137
2.10592 -13.8576 41.9065 24 23 37
-7.20516 6.82409 38.2007 208 189 172
-4.33363 -0.745772 36.9257 204 197 187
4.65255 -2.58398 34.7597 55 42 36
4.08934 -0.289623 33.3981 164 149 144
-2.61455 -15.2048 44.7636 38 71 114
-24.2475 17.9844 80.1207 140 131 116
-1.29156 1.2308 31.4343 45 29 29
-4.50086 -1.33179 37.5179 226 219 213
5.16508 -6.12901 37.9839 163 144 129
-4.22967 2.23504 34.2885 172 158 145
-0.348631 6.54188 29.8591 189 173 157
5.3425 -5.23 36.6558 179 165 162
-4.17442 7.85833 32.8774 120 93 76
5.98648 1.14382 35.0965 87 78 73
-1.31182 -7.42901 36.1642 237 231 231
3.68577 6.20082 32.0343 93 79 78
-0.0757293 5.05877 31.0772 67 49 45
0.437513 3.81886 30.1317 60 59 67
2.58481 -4.41143 33.2315 153 143 134
5.85165 -4.09548 36.9038 160 150 148
-1.45632 1.7295 31.5824 76 67 70
2.00497 -13.326 41.7746 38 77 144
-2.08367 -2.46498 35.4781 81 75 75
4.23963 -6.44822 36.4962 167 158 153
0.0821611 -8.3723 37.4554 189 176 168
1.57792 3.692 32.1862 96 73 57
2.80234 -0.166065 32.6537 181 173 170
9.42613 -3.57535 46.6134 125 115 103
1.70418 3.64565 31.3712 86 60 43
-5.27943 5.62882 33.8189 125 109 110
2.28314 -14.9914 42.9058 31 80 139
0.598573 4.36649 30.5404 106 80 63
5.21478 -5.44037 36.3413 161 147 136
-3.77059 -0.564604 35.6599 208 201 193
0.482088 2.46902 30.8781 57 46 54
-1.34003 -6.74646 35.4788 207 199 196
2.69718 0.886863 32.2416 83 66 58
-4.01321 5.96528 32.4017 185 172 163
3.48972 -5.5239 35.0722 192 178 177
-25.202 15.6475 89.5613 157 191 219
0.202964 -3.58455 32.4369 233 224 217
5.95486 1.14709 34.9367 87 78 73
-22.9463 20.9793 76.0048 135 121 95
-0.27921 -2.17574 31.8108 228 218 206
-0.249419 -2.47879 32.0327 219 210 205
2.07511 -7.92623 36.1906 219 202 208
-4.89093 -1.73187 37.0941 207 196 192
5.3052 6.34893 34.4251 76 70 72
14.148 -8.92596 -33.8382 33 55 69
-3.44546 1.71015 33.4714 188 178 169
-2.90987 2.06327 32.7469 207 191 175
0.507095 3.4334 29.5273 63 63 71
-1.09293 1.30507 31.2579 51 37 36
-1.1654 0.288852 30.235 169 155 146
1.67078 -7.9086 36.8803 211 196 189
-0.488318 -14.4142 42.5346 32 73 135
2.20169 -13.5757 43.1608 37 81 146
5.39215 2.57307 34.3566 82 64 60
-1.32219 -13.7789 42.0003 33 77 138
-10.4473 3.00744 46.1843 85 138 208
-0.450084 6.12686 30.1898 204 191 175
-22.4001 20.6944 73.931 160 146 120
2.55748 -7.51431 36.8193 185 175 166
4.98404 -6.05608 36.8371 166 161 168
-0.306342 -13.4699 42.9568 35 81 140
11.2032 -2.24504 46.6287 64 118 182
2.00963 2.44793 31.4843 73 62 66
1.82255 -2.05206 34.9131 75 69 69
-26.2719 20.5352 79.4201 103 96 90
5.62205 3.38571 35.2889 69 59 57
2.24172 -8.56705 38.1332 168 149 145
0.931169 2.01656 30.8442 70 60 61
4.16122 -8.98085 39.8813 187 171 158
-5.74031 1.71224 36.2612 181 171 169
9.56302 -4.23762 46.2727 106 101 95
2.66066 6.4543 31.6397 81 72 73
1.20411 3.895 31.2471 79 69 78
0.979917 -0.77957 30.6477 171 153 141
4.24956 -0.215686 34.3781 158 144 131
12.5841 -7.32422 -27.6838 36 58 72
-2.8298 6.27054 30.1117 186 166 159
0.0330317 -3.73052 33.1511 239 230 221
6.28288 -3.46595 -13.0908 35 54 69
9.19032 -4.33435 46.7317 128 120 107
-0.618496 4.57174 30.6614 89 64 42
5.4396 0.038653 34.0927 120 103 95
9.78056 -6.21947 -23.3308 42 60 70
-0.24769 2.02667 30.7064 56 44 44
-6.64034 -2.35155 41.9614 153 134 127
-5.56813 0.681264 35.6881 168 157 155
-21.3109 19.7212 78.9654 76 59 43
3.26765 -15.0047 44.3953 28 79 134
-1.96341 -7.09022 39.1245 202 193 186
4.24121 -3.06234 33.8067 85 70 65
-5.85012 4.72297 36.2282 130 112 102
-5.4868 0.676427 35.9535 138 129 124
5.23488 2.41607 33.8881 88 74 65
-4.74736 5.08748 33.7129 150 131 125
-0.627589 4.73502 30.4507 97 74 58
2.5799 5.73722 31.8396 77 62 59
-2.36895 -0.993106 34.179 232 223 216
-4.9946 4.79967 34.3461 148 131 124
-2.53044 -14.808 45.601 33 74 140
10.0738 4.06353 42.474 45 38 46
1.95919 -9.9752 39.093 212 201 195
2.22595 6.08233 31.2532 72 60 62
-3.09441 -9.63882 41.9572 206 189 181
2.92046 3.78325 31.7846 95 77 67
4.02599 4.47454 32.8424 94 83 81
-2.00433 -7.95644 37.868 194 179 184
3.64626 4.28544 33.1555 87 75 77
-0.191714 1.03575 29.6219 86 69 51
0.0202754 -13.0503 38.1741 36 77 139
4.66747 5.735 34.5825 76 62 59
19.9101 -10.8144 -42.6911 58 81 99
-0.251095 2.62018 30.7578 70 64 68
-11.2114 1.37718 50.3101 76 126 197
1.69691 -8.80773 37.9296 178 163 156
-2.0313 6.49658 30.6978 196 179 163
-5.51886 -13.4416 48.7446 36 80 143
-3.59353 -0.708757 35.2437 222 215 207
2.81397 4.19472 31.7498 93 76 69
1.46263 3.3716 30.7536 89 59 48
-2.39569 2.31054 32.9491 193 174 167
2.22859 6.05824 31.7271 73 61 63
6.67485 2.22009 35.5728 78 69 64
-3.68727 -3.53654 35.7942 93 71 60
5.90428 1.30001 34.5111 88 77 73
2.19589 4.743 31.1816 72 62 61
2.86371 3.35215 31.9849 93 78 73
5.41984 -3.61261 -12.0056 35 52 60
4.70999 0.100747 33.064 133 122 116
15.8906 -7.90076 -33.6033 48 75 102
1.45023 1.95482 31.9194 51 41 40
4.33426 -9.18725 39.8135 172 155 147
3.75318 -13.2344 43.4233 32 81 148
1.41534 -10.4447 39.3661 205 189 176
3.00774 4.37983 31.2757 84 70 67
3.62076 -2.1129 34.822 91 81 80
3.81546 2.69986 32.6728 117 107 108
3.49875 -12.7814 43.6889 37 80 148
3.02648 5.0312 31.3223 86 80 80
-5.94791 -6.55421 42.7931 187 174 166
10.4761 -7.03952 -24.7845 47 62 69
6.11039 2.41007 35.3069 62 54 52
10.4813 -6.86135 -25.7911 46 62 75
2.04307 -14.7422 42.3102 46 71 127
1.93887 3.42779 31.0032 97 75 62
0.552719 -5.71479 35.1794 222 206 206
4.17863 -6.37137 36.9096 187 172 165
5.05477 0.435572 33.6788 138 124 111
3.68095 3.58327 32.5429 92 82 81
2.03048 2.35836 31.2647 70 59 65
2.67883 5.61821 31.654 80 64 64
1.14077 -14.2615 44.5354 21 45 91
-0.141918 -7.12096 36.0876 200 192 189
1.3054 1.95718 31.0875 57 48 51
4.63996 4.45484 33.9242 95 87 85
-0.415423 -0.610412 29.5842 200 187 178
-1.72961 -9.64803 40.0325 214 204 202
0.780698 2.55318 30.6702 83 75 73
-2.63804 6.19278 31.2176 199 181 171
0.458001 -0.457484 29.3347 198 196 197
0.857724 4.35193 30.7033 95 73 52
-4.63578 -7.45754 41.2318 172 152 141
-5.81358 -8.09266 45.1211 172 160 144
0.270233 -15.0591 42.9476 31 72 134
3.71799 2.85145 33.0123 113 99 96
-1.10974 -14.5892 42.0077 44 50 82
9.11911 -5.26997 -20.2542 34 58 68
-23.9632 20.2421 76.4384 135 120 97
2.30475 -2.03463 33.9204 79 65 62
9.34984 -5.51398 -21.34 41 60 74
-4.29314 7.29443 32.8851 128 110 98
4.1363 -6.02942 35.9102 171 167 168
1.8576 3.1818 30.8637 91 80 74
-5.49553 -14.3536 50.4765 39 77 142
4.14332 3.49757 32.7262 84 74 73
1.08724 -0.376036 30.3185 182 165 158
1.55962 2.79363 30.5874 70 65 69
1.13054 -15.3685 42.827 31 75 136
-3.52035 -13.6384 45.9095 39 78 147
-5.97434 0.286773 37.0291 137 140 147
-4.99323 0.537969 35.884 189 171 161
0.463123 -2.8307 32.0005 200 193 185
-3.85701 6.9026 32.4204 180 164 148
-1.48344 -14.5283 43.1643 28 73 138
-2.50388 -13.7125 43.0384 52 72 107
3.75839 -8.50667 38.6828 168 153 148
4.29591 3.79714 32.734 91 80 74
5.31577 -4.18687 35.2086 169 156 148
-4.71271 1.71878 35.2354 168 154 151
1.28205 -4.32251 33.9459 217 206 204
-2.09358 -8.21099 38.9685 219 204 209
2.05205 -13.4854 41.4996 36 74 137
-2.95212 -10.0637 41.2536 199 184 179
7.79436 3.21045 37.7964 71 60 64
-2.14076 -14.7804 43.0211 29 72 127
4.2997 -13.0419 45.0826 42 85 138
0.559479 1.78642 30.5141 59 48 46
-22.192 17.2279 81.0645 154 143 123
0.3941 3.57325 29.8552 53 55 68
16.2015 -9.63489 -37.1159 37 59 70
5.791 1.34816 34.2872 91 77 74
3.533 0.248304 33.0257 162 153 146
0.586137 2.18177 30.731 54 43 47
-5.84791 5.08987 36.2095 144 128 128
6.83475 2.62251 36.3156 81 72 67
1.27646 1.90682 30.0996 57 48 51
1.06914 5.64542 30.4594 68 65 76
-0.455874 -2.03637 31.4912 202 196 184
-11.4161 3.49549 46.1941 87 142 207
-0.557336 -1.86647 31.9975 215 207 196
18.5832 -10.653 -40.1191 41 60 67
12.0685 -7.84356 -27.6749 40 60 67
-5.43838 -14.3606 48.6302 32 78 138
-3.4236 2.07662 33.3162 184 171 162
-2.68482 -3.02107 36.1417 42 35 29
1.76766 5.68673 30.8947 83 72 76
3.28906 -2.1738 33.5917 82 80 81
10.8123 -6.90802 -24.9074 43 57 60
-4.32273 7.2311 32.9483 130 110 101
-3.01583 -0.295314 34.2742 220 212 201
-4.75015 -15.3866 48.5152 38 74 136
-0.832046 2.09077 31.089 68 61 68
-0.439698 -8.31756 37.7709 208 205 196
4.18406 -2.86438 34.8543 51 43 40
-0.0916935 -4.15603 34.1939 228 221 211
0.38772 4.85149 30.7692 85 58 51
-4.39741 7.76799 33.3644 120 99 82
3.85297 4.07574 32.6777 79 67 71
1.71496 5.79826 30.9094 63 58 65
2.05711 4.45401 30.903 76 67 70
4.03096 5.86587 33.4524 96 86 85
0.645153 5.06095 31.0519 85 63 52
-0.61844 2.37397 30.703 62 57 64
6.96447 2.39031 36.0383 75 69 73
0.957132 1.62447 31.1585 53 40 32
6.24486 5.09908 35.3543 67 61 61
5.44872 4.11755 35.1799 70 55 50
-1.57435 -14.9658 43.5588 41 53 91
0.442241 -2.99976 32.7075 239 231 228
-11.7117 3.32616 48.9271 85 139 209
-0.626546 0.708524 3.01134 39 61 74
1.22325 3.43155 30.7141 80 62 52
-3.39953 -5.634 35.4831 119 115 106
14.9076 -7.80976 -31.5668 38 66 88
3.1643 -1.83768 -6.84076 33 51 65
-2.21183 6.02389 29.856 191 173 161
2.31043 2.35383 32.1761 73 66 73
-2.21017 -14.7051 44.3058 39 59 96
6.99752 -3.28119 -17.0132 170 194 218
-3.58912 -14.174 45.7931 34 75 137
4.43011 -1.82848 33.1652 69 62 70
31.1194 -14.3341 -76.9305 139 182 216
11.3967 -1.27624 46.6105 75 122 190
4.35048 4.60245 33.6492 88 77 75
0.856041 4.6385 30.8009 105 83 72
-1.87956 -14.509 45.7337 33 77 140
-3.33339 -7.1666 38.5586 201 190 184
-8.69936 -5.85712 47.8181 53 102 160
14.9408 -9.7045 -34.6617 39 58 65
-0.807701 -0.766638 30.4657 228 213 206
18.4327 -10.0016 -40.436 38 66 88
3.88482 4.10108 32.3301 83 69 68
3.29324 -5.50594 33.5499 206 192 189
-1.91479 -14.5214 42.0259 30 72 132
3.01184 -12.6177 42.7236 38 79 141
37.6475 -19.3233 -98.8755 168 192 218
-5.74278 3.58393 14.1572 35 57 71
7.62771 -4.30544 -18.3478 49 76 103
-3.81548 -0.256215 34.1094 199 188 182
19.3352 -8.45843 -52.2435 119 173 219
4.33126 5.50565 33.6604 85 75 74
-3.50657 -15.2615 44.5328 17 28 73
4.39079 -4.60658 34.6329 181 170 166
-27.6922 15.77 99.1955 141 183 223
-2.29848 -15.2936 44.0915 45 73 136
1.8065 1.50464 31.6035 94 72 59
-3.53263 -15.6892 44.7761 27 72 137
-5.97347 -10.8291 46.3638 39 83 144
2.26996 -14.8404 41.4392 33 73 135
10.1257 -4.77113 -25.6864 148 184 218
9.80264 -2.55426 44.678 66 61 55
3.72026 4.74304 33.1229 99 85 82
-0.0544302 -15.9556 43.8288 27 73 133
7.91001 3.67982 37.9442 72 63 64
-9.46424 2.66786 25.8463 93 147 207
1.91399 4.90092 30.7213 85 66 60
1.22134 5.78923 30.9674 59 56 65
